<svg fill="#000000" width="64px" height="64px" viewBox="0 0 24 24" id="tax" data-name="Flat Color" xmlns="http://www.w3.org/2000/svg" class="icon flat-color"><g id="SVGRepo_bgCarrier" stroke-width="0"></g><g id="SVGRepo_tracerCarrier" stroke-linecap="round" stroke-linejoin="round"></g><g id="SVGRepo_iconCarrier"><path id="primary" d="M17,13A6,6,0,0,1,13.69,2H4A2,2,0,0,0,2,4V20a2,2,0,0,0,2,2H17a2,2,0,0,0,2-2V12.65A6,6,0,0,1,17,13Z" style="fill: #000000;"></path><path id="secondary" d="M14,18H6a1,1,0,0,1,0-2h8a1,1,0,0,1,0,2Zm-4-4H6a1,1,0,0,1,0-2h4a1,1,0,0,1,0,2Zm5-3a1,1,0,0,1-.71-.29,1,1,0,0,1,0-1.42l6-6a1,1,0,1,1,1.42,1.42l-6,6A1,1,0,0,1,15,11Zm5.5-3A1.5,1.5,0,1,0,22,9.5,1.5,1.5,0,0,0,20.5,8Zm-5-5A1.5,1.5,0,1,0,17,4.5,1.5,1.5,0,0,0,15.5,3Z" style="fill: #2ca9bc;"></path></g></svg>